<?xml version="1.0" encoding="utf-8"?>
<!-- Generator: Adobe Illustrator 16.0.0, SVG Export Plug-In . SVG Version: 6.00 Build 0)  -->
<!DOCTYPE svg PUBLIC "-//W3C//DTD SVG 1.1//EN" "http://www.w3.org/Graphics/SVG/1.1/DTD/svg11.dtd">
<svg version="1.1" xmlns="http://www.w3.org/2000/svg" xmlns:xlink="http://www.w3.org/1999/xlink" x="0px" y="0px" width="60px"
	 height="38.667px" viewBox="0 0 60 38.667" enable-background="new 0 0 60 38.667" xml:space="preserve">
<g id="bg" display="none">
	<rect y="-10.667" display="inline" fill="#38AF8B" width="60" height="60"/>
</g>
<g id="shadow_right" display="none">
	<polygon display="inline" fill="#38AF8B" points="14.546,1.026 22.407,1.026 28.428,7.047 28.428,1.026 36.289,1.026 38.162,2.894 
		39.948,2.122 47.568,3.735 60,16.217 60,49.244 22.879,49.251 10.324,36.838 10.324,31.737 15.263,29.929 	"/>
</g>
<g id="jjn">
	<path fill="#FFFFFF" d="M10.324,29.123c0,0,4.222,0.874,4.222-3.93V1.026h7.861v25.405c0,5.75-2.766,10.916-12.083,10.407V29.123z"
		/>
	<path fill="#FFFFFF" d="M24.205,29.123c0,0,4.223,0.874,4.223-3.93V1.026h7.861v25.405c0,5.75-2.767,10.916-12.084,10.407V29.123z"
		/>
	<g>
		<path fill="#FFFFFF" d="M38.162,1.011c9.317-0.51,12.083,4.659,12.083,10.409v25.405h-7.862V12.658
			c0-4.805-4.221-3.932-4.221-3.932V1.011z"/>
	</g>
</g>
</svg>
